/* XPM */
static char *tcoin16[] = {
/* columns rows colors chars-per-pixel */
"16 16 200 2 ",
"   c #67502A",
".  c #68512A",
"X  c #6A522A",
"o  c #6B532D",
"O  c #6E552C",
"+  c #6F562D",
"@  c #6F572D",
"#  c #6D562E",
"$  c #6E562F",
"%  c #70562C",
"&  c #70562D",
"*  c #72582C",
"=  c #71582E",
"-  c #70582F",
";  c #71582F",
":  c #71592F",
">  c #73592F",
",  c #775B2D",
"<  c #745B2F",
"1  c #775C2D",
"2  c #765C2F",
"3  c #715A30",
"4  c #735B30",
"5  c #745C30",
"6  c #745C31",
"7  c #755C31",
"8  c #775E31",
"9  c #745C32",
"0  c #755D32",
"q  c #745D33",
"w  c #775F33",
"e  c #785F31",
"r  c #785F32",
"t  c #7B602F",
"y  c #7A6030",
"u  c #7A6031",
"i  c #7A6133",
"p  c #7C6133",
"a  c #7E6232",
"s  c #7E6432",
"d  c #7B6435",
"f  c #7B6436",
"g  c #7E6437",
"h  c #7D6636",
"j  c #7D6739",
"k  c #816532",
"l  c #816534",
"z  c #806734",
"x  c #836834",
"c  c #826936",
"v  c #846934",
"b  c #856A35",
"n  c #856B35",
"m  c #866A35",
"M  c #846B37",
"N  c #866C36",
"B  c #876C36",
"V  c #876D36",
"C  c #8A6B34",
"Z  c #886C36",
"A  c #896C36",
"S  c #896F37",
"D  c #8B6E36",
"F  c #836838",
"G  c #846938",
"H  c #836C38",
"J  c #836D3B",
"K  c #876F38",
"L  c #81693C",
"P  c #896C39",
"I  c #8A6D38",
"U  c #896F39",
"Y  c #87703C",
"T  c #897038",
"R  c #8B7038",
"E  c #8B7339",
"W  c #8D7239",
"Q  c #8F7339",
"!  c #8F7439",
"~  c #8D753A",
"^  c #8D753B",
"/  c #8F743A",
"(  c #8F763B",
")  c #8B703E",
"_  c #8E743C",
"`  c #8D743F",
"'  c #907439",
"]  c #92743A",
"[  c #93763B",
"{  c #977739",
"}  c #90733D",
"|  c #93783B",
" . c #947B3E",
".. c #997A3D",
"X. c #8A7142",
"o. c #887542",
"O. c #8B7743",
"+. c #8E7740",
"@. c #8F7842",
"#. c #8F7943",
"$. c #8F7A43",
"%. c #8D7944",
"&. c #8D7A46",
"*. c #937B41",
"=. c #947A44",
"-. c #907C47",
";. c #967C44",
":. c #9D7F45",
">. c #907C48",
",. c #927F49",
"<. c #937F49",
"1. c #977E4A",
"2. c #978042",
"3. c #978044",
"4. c #998046",
"5. c #9B8346",
"6. c #948049",
"7. c #958149",
"8. c #94804B",
"9. c #97814A",
"0. c #97824B",
"q. c #9B814B",
"w. c #99844B",
"e. c #9A844A",
"r. c #9B844B",
"t. c #9D874B",
"y. c #9A854C",
"u. c #9D864D",
"i. c #A18141",
"p. c #A08242",
"a. c #A38344",
"s. c #A28746",
"d. c #A38746",
"f. c #A48544",
"g. c #A78645",
"h. c #A48547",
"j. c #A78646",
"k. c #A78B47",
"l. c #A3864A",
"z. c #A48748",
"x. c #A1854C",
"c. c #A58D4B",
"v. c #A48B4E",
"b. c #A58A4F",
"n. c #A98849",
"m. c #AC8A4A",
"M. c #A98D49",
"N. c #A98F48",
"B. c #AA8F49",
"V. c #AD8D4A",
"C. c #A88A4C",
"Z. c #A88E4D",
"A. c #A88D4F",
"S. c #AA904B",
"D. c #AB904D",
"F. c #AA904F",
"G. c #AB924F",
"H. c #A28C52",
"J. c #A48C50",
"K. c #A68F51",
"L. c #A78E53",
"P. c #A68F54",
"I. c #A68C57",
"U. c #A98C50",
"Y. c #AB8C50",
"T. c #AC8E51",
"R. c #AF8F50",
"E. c #A79054",
"W. c #AB9150",
"Q. c #AA9051",
"!. c #AF9152",
"~. c #A99257",
"^. c #AE9656",
"/. c #AE9658",
"(. c #AF945A",
"). c #B59550",
"_. c #B69756",
"`. c #BA9C57",
"'. c #B39658",
"]. c #B3965A",
"[. c #B1985E",
"{. c #B3995E",
"}. c #B99B5C",
"|. c #B99D5D",
" X c #BB9F5C",
".X c #BEA15E",
"XX c #BEA05F",
"oX c #BEA263",
"OX c #C0A463",
"+X c #C1A665",
"@X c #C2A664",
"#X c #C2A867",
"$X c #C4AA6B",
"%X c #C9AF6D",
"&X c #CDB16B",
"*X c #CAB171",
"=X c #CDB372",
"-X c #CDB473",
";X c #D0B774",
":X c None",
/* pixels */
":X:X:X:X:XN.B.W.K.t.y.:X:X:X:X:X",
":X:X:X:Xk.M.G.^.E.w.6.%.:X:X:X:X",
":X:Xc.s.S.D.F.Q.J.u.0.&.o.,.:X:X",
":X:Xv.Z.d.p.h.C.l.;.@.-.8.O.7.:X",
":XP./.A.a.j.Y.!.U.q.` J >.<.$.:X",
"H.~.L.z.n.R.XX}.].{.1.L j e.3.2.",
"9.r.4.i.m._.&X@XoX*XI.X.9 +. .( ",
"#.5._ { V.`.)..XOX'.(.1.; H | S ",
"Y *.M C ..f.g. X+XT.x.) & c ! V ",
"h f d t k A ] |.#X:.} a % U Z T ",
"i 6 w @ * u =.$X-Xb.I , 2 / v ^ ",
":X: $ 3 X + [.=X;X%XP 1 R D n :X",
":X4 o q - . 0 g F G a W [ b ^ :X",
":X:X#   7 r 5 < y x Q ' V E :X:X",
":X:X:X= O > p l m Z B N ~ :X:X:X",
":X:X:X:X:Xe 8 u s z K :X:X:X:X:X"
};
