/* XPM */
static char *tcoin32[] = {
/* columns rows colors chars-per-pixel */
"32 32 91 1 ",
"  c #5B4525",
". c #644C26",
"X c #654E29",
"o c #694F28",
"O c #67512A",
"+ c #6C542B",
"@ c #6F582E",
"# c #72562A",
"$ c #735A2D",
"% c #7A5D2E",
"& c #755D32",
"* c #785E34",
"= c #7C602F",
"- c #776034",
"; c #7C6233",
": c #7F6836",
"> c #7E6738",
", c #7D6938",
"< c #826632",
"1 c #846A35",
"2 c #8A6D36",
"3 c #836C3B",
"4 c #8A6E3A",
"5 c #8C7037",
"6 c #85703E",
"7 c #8C733B",
"8 c #917136",
"9 c #92753B",
"0 c #947B3E",
"q c #9B7C3E",
"w c #A07F3E",
"e c #877441",
"r c #8C7642",
"t c #8D7944",
"y c #8F7C48",
"u c #927741",
"i c #937B43",
"p c #997D42",
"a c #907748",
"s c #937D49",
"d c #997F4D",
"f c #9B803F",
"g c #978146",
"h c #9C8243",
"j c #95814B",
"k c #9C854B",
"l c #9E884C",
"z c #9C8650",
"x c #9D8951",
"c c #A38443",
"v c #A88746",
"b c #A38946",
"n c #AA8A47",
"m c #A4854A",
"M c #A88749",
"N c #A48A4C",
"B c #AA8C4C",
"V c #AC934D",
"C c #B3924C",
"Z c #A18754",
"A c #A38C53",
"S c #AC8D51",
"D c #A98F58",
"F c #A69155",
"G c #AC9354",
"H c #AF9854",
"J c #AD9559",
"K c #AF9858",
"L c #B39453",
"P c #B59A55",
"I c #B99B57",
"U c #B59759",
"Y c #B49B5C",
"T c #BB9E5C",
"R c #BDA05D",
"E c #BA9E61",
"W c #BCA162",
"Q c #C3A75E",
"! c #C1A563",
"~ c #C4A966",
"^ c #C2A768",
"/ c #C5AC69",
"( c #C9AE6A",
") c #CAB26E",
"_ c #D0B46E",
"` c #CDB472",
"' c #D1B774",
"] c #D3BA75",
"[ c #D5BC79",
"{ c #DAC17D",
"} c None",
/* pixels */
"}}}}}}}}}}}}}RRYYKK}}}}}}}}}}}}}",
"}}}}}}}}}}VVncbllhgglx}}}}}}}}}}",
"}}}}}}}}VVcfblVHFFx0teyx}}}}}}}}",
"}}}}}}VVccbPRHRYKFxjDje,sF}}}}}}",
"}}}}}VbpbPPHGSSSFxkjAyzt,eF}}}}}",
"}}}}HbgBPBbbBBSSNNkNjtseye,F}}}}",
"}}}HNpNBBcccccSSNhgiijjijj66F}}}",
"}}}FkHHNhcpwcmwCNkpi76tjjxj,t}}}",
"}}KAJYKNhwcvdSSSSmkau43ejjjt,l}}",
"}}AAJYSbcvMMSLLLSSZdur3*6jjjtt}}",
"}FAJJNNvvvMSURIULDUDare*&ezlg0l}",
"}AAYGkmvMSSLR(RUYY^EZae>--zlli0}",
"}zlJkgwcvCCI_{(REE{[Dda>-@6lg05h",
"jstgtpwcwCLL_]~RWW['JZd>-@,h091f",
"segi770wwIIICCR!!EUSAJA3-@@h02:f",
"e0VN7589wR!RnCI~~WUSJWU6-O+ff0=0",
"66Nh5<289nSMvnU^(WLSMSd3$o#up9=0",
"24663=<288qqcvS/(ESBdu4<*+#u51;0",
",::>,;=<<2889qS((Emppr1*$+*p5<=h",
"}:&;,-$*%<<148M]'Epp82<%#o4p5:1b",
"}:#*;-@##%=<<<d[[E4441<#+@f85=5}",
"}:@@*-@+o$$$dJW[{'EU4<%#o1051=0}",
"}}&++&&Oo+++J[[[{{{[9<%#$f85<:h}",
"}};++@&&Oo+oA)`'']]'4%#%0951=0}}",
"}}}&X@>*&X..*3347577=#=0085=1}}}",
"}}}*@.&*&&+...oO++@#@1f0991;h}}}",
"}}}}*X @&;*&&++++$=:997092=f}}}}",
"}}}}}*X $;;;*;;:12259595<;f}}}}}",
"}}}}}};@.O&;;21<2482952=1h}}}}}}",
"}}}}}}}};+X+&;<<:141:=;0l}}}}}}}",
"}}}}}}}}}}:%#+@$%$$=10h}}}}}}}}}",
"}}}}}}}}}}}}33111677}}}}}}}}}}}}"
};
