/* XPM */
static char *tcoin64[] = {
/* columns rows colors chars-per-pixel */
"64 64 129 2 ",
"   c #4E3A1F",
".  c #533D1F",
"X  c #523D21",
"o  c #564022",
"O  c #5B4423",
"+  c #5F4824",
"@  c #604725",
"#  c #644B26",
"$  c #694E27",
"%  c #654D29",
"&  c #694F29",
"*  c #6B5127",
"=  c #66502A",
"-  c #6C532B",
";  c #6F582E",
":  c #71562B",
">  c #745A2D",
",  c #795D2E",
"<  c #6F5630",
"1  c #6C5931",
"2  c #745C32",
"3  c #795F31",
"4  c #7C612F",
"5  c #766134",
"6  c #7C6334",
"7  c #7E6836",
"8  c #766338",
"9  c #7D6638",
"0  c #7E6A3A",
"q  c #80632F",
"w  c #816533",
"e  c #846A35",
"r  c #8A6C35",
"t  c #836C3A",
"y  c #8A6F39",
"u  c #8D7037",
"i  c #85703C",
"p  c #8C733B",
"a  c #8F783F",
"s  c #927236",
"d  c #92753B",
"f  c #987739",
"g  c #947A3D",
"h  c #9B7C3D",
"j  c #A07E3E",
"k  c #866E42",
"l  c #886F40",
"z  c #867341",
"x  c #8B7542",
"c  c #8E7944",
"v  c #8F7D4A",
"b  c #927641",
"n  c #947B43",
"m  c #9A7E43",
"M  c #907748",
"N  c #947D49",
"B  c #987E4C",
"V  c #A07F40",
"C  c #9D803D",
"Z  c #A2813F",
"A  c #978043",
"S  c #9C8244",
"D  c #9F8844",
"F  c #96814A",
"G  c #9B844C",
"H  c #9F894C",
"J  c #9D8550",
"K  c #9E8A51",
"L  c #A48444",
"P  c #A88746",
"I  c #A38A46",
"U  c #AA8A46",
"Y  c #A2864B",
"T  c #A48B4B",
"R  c #AA8C4C",
"E  c #B08E4B",
"W  c #AB9246",
"Q  c #A7914A",
"!  c #AB924C",
"~  c #B3934D",
"^  c #B59A4F",
"/  c #A08653",
"(  c #A38C53",
")  c #AB8D52",
"_  c #A38F58",
"`  c #A98E58",
"'  c #B18F50",
"]  c #A69155",
"[  c #AC9354",
"{  c #AE9856",
"}  c #A59258",
"|  c #AC955A",
" . c #AD995C",
".. c #B29454",
"X. c #B89752",
"o. c #B59A54",
"O. c #B99D55",
"+. c #B3965B",
"@. c #B49A5C",
"#. c #BA9D5C",
"$. c #BBA257",
"%. c #B6A05D",
"&. c #BCA25C",
"*. c #B59D61",
"=. c #BA9E60",
"-. c #B6A161",
";. c #BCA362",
":. c #C1A55C",
">. c #C0A85C",
",. c #C1A664",
"<. c #C3A964",
"1. c #C8AB65",
"2. c #C5AC6A",
"3. c #C9AE6B",
"4. c #CAB16D",
"5. c #C9AF70",
"6. c #CEB472",
"7. c #D0B773",
"8. c #D4BA76",
"9. c #D6BD7A",
"0. c #D8BF7B",
"q. c #DAC27E",
"w. c #DEC582",
"e. c #E4CC84",
"r. c #E2CB89",
"t. c #E5D18C",
"y. c #E8D38B",
"u. c #E9D593",
"i. c None",
/* pixels */
"i.i.i.i.i.i.i.i.i.i.i.i.i.i.i.i.i.i.i.i.i.i.i.i.i.i.i.i.i.{ { { ] ] ] ] i.i.i.i.i.i.i.i.i.i.i.i.i.i.i.i.i.i.i.i.i.i.i.i.i.i.i.i.",
"i.i.i.i.i.i.i.i.i.i.i.i.i.i.i.i.i.i.i.i.i.i.i.i.Q O.&.&.&.;.>.<.;.&.;.;.;.%.{ ] i.i.i.i.i.i.i.i.i.i.i.i.i.i.i.i.i.i.i.i.i.i.i.i.",
"i.i.i.i.i.i.i.i.i.i.i.i.i.i.i.i.i.i.i.i.i.Q o.$.^ ^ W U U S S D I S A m S S T | %. .{ i.i.i.i.i.i.i.i.i.i.i.i.i.i.i.i.i.i.i.i.i.",
"i.i.i.i.i.i.i.i.i.i.i.i.i.i.i.i.i.i.I ! $.O.W Z Z C C S S S G H H G F n a p i i i c ]  . ._ i.i.i.i.i.i.i.i.i.i.i.i.i.i.i.i.i.i.",
"i.i.i.i.i.i.i.i.i.i.i.i.i.i.i.i.S ! &.^ Z C h h C C S S T [ Q ( [ } G ( F F z a i i 0 i F }  .K i.i.i.i.i.i.i.i.i.i.i.i.i.i.i.i.",
"i.i.i.i.i.i.i.i.i.i.i.i.i.i.i.R O.^ I C C h S L I o.T T &.@.;.;.@.( H %. .K c c F c i 0 0 0 A } | i.i.i.i.i.i.i.i.i.i.i.i.i.i.i.",
"i.i.i.i.i.i.i.i.i.i.i.i.i.I o.O.I C C C C I ! O.Q <.! ! 2.{ ;.;.@.@.K } -.F v c  .} K z 0 7 8 0 F  .] i.i.i.i.i.i.i.i.i.i.i.i.i.",
"i.i.i.i.i.i.i.i.i.i.i.i.Q o.! C h S D T U O.@.$.%.$.@.@.%.%. .[  . .H  . .F A n | *.} F z z 0 8 8 a  . .i.i.i.i.i.i.i.i.i.i.i.i.",
"i.i.i.i.i.i.i.i.i.i.i.! $.I h m S S $.$.o.o.>.o.o.{ [ [ T ) T Y ( G H K T G F N } *.K 0 c } F z 7 8 8 ] %.i.i.i.i.i.i.i.i.i.i.i.",
"i.i.i.i.i.i.i.i.i.i.! o.S g g h ! W U ^ $.{ ! Q I T T T [ | +.+.{  .} ( G F A v F G z z } _ v z 0 0 7 8 K -.i.i.i.i.i.i.i.i.i.i.",
"i.i.i.i.i.i.i.i.i.{ $.S n m S ! ! $.I R I I L L T [ @.@.o.[ ' ` ( ( [ [ | +.] K A x z v } F z i z F 0 0 5 F -.i.i.i.i.i.i.i.i.i.",
"i.i.i.i.i.i.i.i.[ %.S g m S I $.O.O.o.I L S I [ [ I P S S Y / V L G S n n n F ( } K c i z G z z z K F 0 8 1 F -.i.i.i.i.i.i.i.i.",
"i.i.i.i.i.i.i.Q %.G n m S T Y I $.! L m S R R m g L L L R ) R ) T R P Y m m b y p K } K x z z z K } F z 0 8 8 K %.i.i.i.i.i.i.i.",
"i.i.i.i.i.i.i.&.T n m G I &.Y I T S m I U h h Z P L P U ' V R V T Y Y B B m b m c t t G } G z A } z z _ A 0 7 8 ] | i.i.i.i.i.i.",
"i.i.i.i.i.i.@.[ A F Y [ T o.%.T C S T Z g h Z j L L P Y ) R ' V T Y Y V m n b b p x i t x } K z z z } _ K c 0 0 0 | i.i.i.i.i.i.",
"i.i.i.i.i.[ #.F G Y @.%.[ [ I m S R h h Z Z L m V Y P Y B ) ' ) ) T Y m m m b b p p p u 0 0 ] ] F F K _ F c a 0 5 c %.i.i.i.i.i.",
"i.i.i.i.i.;.K G ( [ @.1.>.[ S Y [ h j V V L P j V ' B B ' ' ' ) ) ) Y G G B N n x x p y t e 8 K K c F K v _ F i 0 8 K { i.i.i.i.",
"i.i.i.i.{  .G ( } ;.[ ( -.T I } m j L L L U U V ' B +.+.' ' ' ' ' ) Y Y / B B M d p n p t t 9 2 K _ z F } F c c i 0 i { i.i.i.i.",
"i.i.i.i.*.( K ( #.<.2.@.T T [ L j L L P P P U P V +.B ' ' ' +.....) R Y / / B B M p x i y t 9 2 1 K K F F v c F x i 0 H { i.i.i.",
"i.i.i.|  .G ( ( } ( { #.G +.T m P L P U V E E P ' +.#.+.+.+.........R R ` / / B n d x y y t 6 9 5 8 ] c A F F H A x i i %.i.i.i.",
"i.i.i.*.( J ( | ( ( Y / ( ) m P ' V ) V P R P E ' #.#.#.+.' ' ' ..) ) ) ` ` _ / N b p y t 9 3 9 5 1 c K F H H { A c a e Q { i.i.",
"i.i.K  .G K } ;.;.| G G [ Y P U V V ' V ' ) ) ' X.#.=.=.#.#.+.+.+.+.| ) *.*.+.` F N M M k k 9 8 5 1 1 K H F F H A H C i a { i.i.",
"i.i.| ( G ( ;.2.;. .G J ( L P P ' V ) ) ) ) ' ' #.,.,.1.=.#.#.#.+.+.+.| ;.;.*.*.J B N M M k 9 9 5 5 = 0 ] F D A ] ] A a 7 ! i.i.",
"i.i. .G G } } } ( G S T m L P U R R ) ' ' ' +.' :.3.5.5.,.#.#.#.=.@.+.+.5.5.2.;./ B B M M k 9 3 7 5 1 = H D H ] Q S S a e A I i.",
"i.G } F G  .;.@.] A F I h V L P P P ' ' ' ' +.' 1.8.8.8.3.#.#.=.=.=.+.=.8.8.7.5.` B B B M M 9 9 5 2 < % z Q H D A S g g e p Q i.",
"i.G K N F F ( -.H n F n j L L P V P ' ' ' ..X...3.q.q.q.8.#.:.=.=.=.=.=.r.r.r.q.+./ J B N M k 9 5 2 2 ; 1 H S S A m g g u 7 Q i.",
"i.G F n n n n n n c G d h j Z Z V P ' ' ....X...7.y.y.y.8.#.=.=.,.;.=.;.r.u.t.r.*./ / J B B k 3 3 2 2 ; + A D A m g g p u 5 I i.",
"i.J n x x c n c x p m d j j L L V V ' X.X.X.o.~ $.1.1.4.1.#.,.,.,.=.=.#.5.2.2.=.` ` ` / J B k < 3 5 1 ; = z H A g g p u r 4 C D ",
"i.G x i c S A c p x g u h h j Z j V X.X.X.X.X.X.E ~ X.X.X.$.,.,.,.,.,.+.+.+.' Y Y +.` ` / / y 8 9 3 2 < # 7 D A C a u u e 4 a I ",
"0 G i x n G A n p p p r f d h j V V X.X.#.#.:.X.E ~ X.X.~ :.,.,.,.,.,.#.+.+.+.' / +.*.` ` ` k w 5 3 < - = 1 D A C C e e e 4 a I ",
"0 F i n D [ Q S n p i r s s f h j j X.:.:.:.:.X.Z ~ ~ X.~ :.:.,.<.<.<.@.+...+.) / *.*.*.+.| x 6 3 2 - - = = F C p C C 7 4 4 u I ",
"0 F t n Q &.$.T p i e u s r f f j j :.1.>.1.1.X.E ~ Z X.~ :.,.1.<.2.<.#.X.+.' R _ -.;.;.;.=.M 5 2 < - - 1 = D C C C Z C 4 5 u Q ",
"8 c t d I $.o.n p t w r e r s s f f X.#.#.X.#.' P U E E E #.<.<.2.2.<.+.X.....( B ,.=.+.+.+.M w < < < % - - D g m W W r 4 4 i Q ",
"8 n 7 i S S A g p t w q e r s f s s f f j j j V j P U U U #.<.2.2.2.2.+...) ' Y B V B B l l w < q < < & % = I p g g d 4 4 4 u Q ",
"2 x e t x c x x p 0 4 , q r s r s d f g h h V V j P P P P #.2.2.2.3.2.+.) ) ) R V B V M b l r q q < < @ @ ; I b u u e 6 4 5 a I ",
"1 p 7 7 t t y l i 0 q , q e r r r r r p f f f j j L L P V +.3.3.3.5.2.+.R ) R Y B V M f r w q q q q < & @ 8 I d p u r w 7 ; C Z ",
"i.i t 6 9 9 w t t 9 6 3 4 4 e r q r r r u d d b f h m V V +.3.3.3.3.5.` P Y Y V V V M b k w w q < q & & & l L d p p r e 4 5 C C ",
"i.t e 5 9 6 8 w t 0 7 - , 4 q q q w r r r u r s d g f h b +.4.3.6.6.5.' Y Y V m b M b r k w w < < < : & @ M m f d u e 4 4 > Q i.",
"i.5 i 5 5 5 3 9 9 0 7 ; > 4 , 6 w , , q q w r r r s y b d +.7.6.6.6.6.Y V V B b b f y k q q < q q & : : $ / V g d r e 4 4 7 ^ i.",
"i.> i , 2 2 3 5 9 w 7 2 * > > 4 , , , , 3 r e e e p u d e *.9.7.8.8.7.Y n b m g b s y w q : q : < & & @ , V b f u e e 7 > p W i.",
"i.i.i 4 ; 2 2 5 9 9 9 5 $ : > , : , > , 6 w w w e e e r e +.0.0.9.9.7.G g d d y p y r r q : q : > > = + C C d d u e 4 4 > C Q i.",
"i.i.w e - 2 2 2 3 9 9 8 2 & > - : : > 3 3 6 6 6 6 w w w w *.q.q.q.q.0.G r r y r r r r e q : : : : - = > D g d u u r 4 4 5 I i.i.",
"i.i.2 i ; - 2 2 3 3 6 5 2 % - - & : : 2 > 4 , > 3 l l x b =.q.q.0.q.q.) m n g f r w r q q q q * * * + a A g u r e e 4 4 7 Q i.i.",
"i.i.i.i 2 % ; > < 2 2 5 5 2 @ - $ - : > - , : - M 6.8.6.7.9.q.0.w.w.w.0.8.q.q.8.V q w , q q : $ * # 4 I g p u u r 4 4 5 C I i.i.",
"i.i.i.5 e % - < < < 1 2 8 8 = % - - ; , # > - - M 7.7.8.8.9.9.9.0.0.0.w.0.q.q.q.B q q q q q q : * # S C s s u r u q , 5 Q i.i.i.",
"i.i.i.< t > % - - - 2 2 2 2 2 + # * - - - : - = M 7.7.7.7.8.8.9.9.9.9.0.0.0.q.q.B , q : : q : : $ a I g s s u r e 4 : d D i.i.i.",
"i.i.i.i.5 e % % < < < < > 2 2 2 + - - * * ; * # x 5.6.6.6.7.8.8.8.8.8.9.8.0.0.8.M q q q : : : @ e U g s s r r e q 4 5 Q i.i.i.i.",
"i.i.i.i.; t 2 # % = - < 1 2 2 2 1 O = # = - # # k 5.5.6.6.6.7.7.8.8.8.8.8.8.8.8.b : q : : q $ w I d g s u r e 4 4 : A Q i.i.i.i.",
"i.i.i.i.i.2 t & # $ & < 3 k 3 < 3 2 O # % - # @ 2 N m B m J G J J Y Y Y ( Y Y I w > 4 , : = r W g s g u e e e 4 > w Q i.i.i.i.i.",
"i.i.i.i.i.i.7 6 + @ % 0 k 9 k < < 2 8 # + + # # # = % % $ # & $ $ : $ : : : : : > > * * - a Q g g g g d g r q , ; I D i.i.i.i.i.",
"i.i.i.i.i.i.- t < O @ 3 8 9 % 2 9 & 2 8 - O o # - - - & $ - : > : 2 : : : : > , > $ # 5 D I g s g d u u C p 4 : C Q i.i.i.i.i.i.",
"i.i.i.i.i.i.i.< t % X # 2 = - x 2 : < 2 8 8 # O + # % $ * $ - - : : : : : : : * $ > g T C s s g m d d u e 4 - u Q i.i.i.i.i.i.i.",
"i.i.i.i.i.i.i.i.2 e + X o % l 2 & 3 t 3 : 2 w 9 ; + O O @ # # $ $ $ $ - # @ * 6 h I S s u u g f u p C e 4 ; 7 Q i.i.i.i.i.i.i.i.",
"i.i.i.i.i.i.i.i.i.2 t O   O < % 2 5 t 2 t w < 2 7 t t 5 2 : - * & $ > 3 t g S m d u r u u g g g u p u 4 * 7 Q S i.i.i.i.i.i.i.i.",
"i.i.i.i.i.i.i.i.i.i.5 w +   X % 3 y 3 2 6 6 3 6 > > , 7 e 0 i i a p p p u r r r r u u d C e r g g e 4 * 7 W D i.i.i.i.i.i.i.i.i.",
"i.i.i.i.i.i.i.i.i.i.i.2 t % X O & 2 2 3 e < 3 e 5 5 5 , , , , 6 6 w 6 w e e r r d d g r C u u u e > * r Q D i.i.i.i.i.i.i.i.i.i.",
"i.i.i.i.i.i.i.i.i.i.i.i.2 t > O o O : 5 y 2 2 w < w x 6 7 w q w r g p r y s r r g g p e g g w 4 ; - g ! i.i.i.i.i.i.i.i.i.i.i.i.",
"i.i.i.i.i.i.i.i.i.i.i.i.i.2 7 4 # O O % & 5 6 x < 3 e y t g e w e i r g y m e e u g g u e w 4 - 4 D W i.i.i.i.i.i.i.i.i.i.i.i.i.",
"i.i.i.i.i.i.i.i.i.i.i.i.i.i.i.5 e , @ O @ & < < w e y y w n 6 4 q w w d d b e r r p e 4 , * ; p Q Q i.i.i.i.i.i.i.i.i.i.i.i.i.i.",
"i.i.i.i.i.i.i.i.i.i.i.i.i.i.i.i.5 e w , # @ @ $ - 2 : 6 6 w 4 q , y r w r e q e 4 4 ; * : p Q W i.i.i.i.i.i.i.i.i.i.i.i.i.i.i.i.",
"i.i.i.i.i.i.i.i.i.i.i.i.i.i.i.i.i.i.7 t y 5 : # @ $ $ $ ; - , 4 > 4 4 5 , : : : * * 4 A Q Q i.i.i.i.i.i.i.i.i.i.i.i.i.i.i.i.i.i.",
"i.i.i.i.i.i.i.i.i.i.i.i.i.i.i.i.i.i.i.i.9 y u i e < : $ # * * * : : - * $ : : e g I D D i.i.i.i.i.i.i.i.i.i.i.i.i.i.i.i.i.i.i.i.",
"i.i.i.i.i.i.i.i.i.i.i.i.i.i.i.i.i.i.i.i.i.i.i.0 y x d p p u u u r u p g g A S S c i.i.i.i.i.i.i.i.i.i.i.i.i.i.i.i.i.i.i.i.i.i.i.",
"i.i.i.i.i.i.i.i.i.i.i.i.i.i.i.i.i.i.i.i.i.i.i.i.i.i.i.2 5 7 0 0 p e i 0 7 5 i.i.i.i.i.i.i.i.i.i.i.i.i.i.i.i.i.i.i.i.i.i.i.i.i.i."
};
